<?xml version="1.0" encoding="UTF-8" standalone="no"?>
<svg width="53px" height="12px" viewBox="0 0 53 12" version="1.1" xmlns="http://www.w3.org/2000/svg" xmlns:xlink="http://www.w3.org/1999/xlink">
    <g stroke="none" stroke-width="1" fill="none" fill-rule="evenodd">
        <path d="M48.616,7.216 L52.6,8.032 L52.456,8.848 L51.832,8.752 C51.064,8.608 50.392,8.512 49.72,8.512 C45.304,8.512 42.472,11.68 37.24,11.68 L33.208,11.68 L33.208,10.864 L33.784,10.864 C38.872,10.864 43.192,7.072 47.32,7.072 C47.752,7.072 48.184,7.12 48.616,7.216 Z M36.28,3.712 L40.216,3.712 L40.216,4.576 L39.784,4.576 C33.928,4.576 23.8,11.68 17.512,11.68 L13.528,11.68 L13.528,10.864 L14.008,10.864 C19.864,10.864 29.992,3.712 36.28,3.712 Z M0.568,8.32 L0.568,7.072 L1.432,7.072 C7.288,7.072 17.416,0.352 23.704,0.352 L27.64,0.352 L27.64,1.216 L27.16,1.216 C21.304,1.216 11.176,8.32 4.888,8.32 L0.568,8.32 Z" id="15" fill="#000000"></path>
    </g>
</svg>