<?xml version="1.0" encoding="UTF-8" standalone="no"?>
<svg width="53px" height="12px" viewBox="0 0 53 12" version="1.1" xmlns="http://www.w3.org/2000/svg" xmlns:xlink="http://www.w3.org/1999/xlink">
    <g stroke="none" stroke-width="1" fill="none" fill-rule="evenodd">
        <path d="M48.616,4.824 C48.184,4.92 47.752,4.92 47.32,4.92 C43.192,4.92 38.872,1.176 33.784,1.176 L33.208,1.176 L33.208,0.312 L37.24,0.312 C42.472,0.312 45.304,3.48 49.72,3.48 C50.392,3.48 51.064,3.432 51.832,3.288 L52.456,3.144 L52.6,3.96 L48.616,4.824 Z M36.28,8.28 C29.992,8.28 19.864,1.176 14.008,1.176 L13.528,1.176 L13.528,0.312 L17.512,0.312 C23.8,0.312 33.928,7.464 39.784,7.464 L40.216,7.464 L40.216,8.28 L36.28,8.28 Z M0.568,4.92 L0.568,3.672 L4.888,3.672 C11.176,3.672 21.304,10.824 27.16,10.824 L27.64,10.824 L27.64,11.64 L23.704,11.64 C17.416,11.64 7.288,4.92 1.432,4.92 L0.568,4.92 Z" id="16" fill="#000000"></path>
    </g>
</svg>