<?xml version="1.0" encoding="UTF-8" standalone="no"?>
<svg width="54px" height="16px" viewBox="0 0 54 16" version="1.1" xmlns="http://www.w3.org/2000/svg" xmlns:xlink="http://www.w3.org/1999/xlink">
    <g stroke="none" stroke-width="1" fill="none" fill-rule="evenodd">
        <path d="M17.464,3.912 C23.752,3.912 33.88,11.064 39.736,11.064 L40.216,11.064 L40.216,11.88 L36.28,11.88 C29.992,11.88 19.864,4.776 14.008,4.776 L13.528,4.776 L13.528,3.912 L17.464,3.912 Z M53.176,8.52 L48.856,8.52 C42.568,8.52 32.392,1.416 26.536,1.416 L26.104,1.416 L26.104,0.552 L30.04,0.552 C36.328,0.552 46.456,7.272 52.312,7.272 L53.176,7.272 L53.176,8.52 Z M0.568,8.52 L0.568,7.272 L4.888,7.272 C11.176,7.272 21.304,14.424 27.16,14.424 L27.64,14.424 L27.64,15.24 L23.704,15.24 C17.416,15.24 7.288,8.52 1.432,8.52 L0.568,8.52 Z" id="17" fill="#000000"></path>
    </g>
</svg>