<?xml version="1.0" encoding="UTF-8" standalone="no"?>
<svg width="54px" height="15px" viewBox="0 0 54 15" version="1.1" xmlns="http://www.w3.org/2000/svg" xmlns:xlink="http://www.w3.org/1999/xlink">
    <g stroke="none" stroke-width="1" fill="none" fill-rule="evenodd">
        <path d="M9.304,0.152 C15.592,0.152 42.088,14.024 47.944,14.024 L49.816,14.024 L49.816,14.84 L44.44,14.84 C38.152,14.84 11.656,1.016 5.8,1.016 L3.928,1.016 L3.928,0.152 L9.304,0.152 Z M53.176,8.12 L48.856,8.12 C42.568,8.12 32.392,1.016 26.536,1.016 L25.24,1.016 L25.24,0.152 L30.04,0.152 C36.328,0.152 46.456,6.872 52.312,6.872 L53.176,6.872 L53.176,8.12 Z M0.568,8.12 L0.568,6.872 L4.888,6.872 C11.176,6.872 21.304,14.024 27.16,14.024 L28.504,14.024 L28.504,14.84 L23.704,14.84 C17.416,14.84 7.288,8.12 1.432,8.12 L0.568,8.12 Z" id="18" fill="#000000"></path>
    </g>
</svg>