<?xml version="1.0" encoding="UTF-8" standalone="no"?>
<svg width="53px" height="12px" viewBox="0 0 53 12" version="1.1" xmlns="http://www.w3.org/2000/svg" xmlns:xlink="http://www.w3.org/1999/xlink">
    <g stroke="none" stroke-width="1" fill="none" fill-rule="evenodd">
        <path d="M4.232,7.416 C4.664,7.32 5.096,7.272 5.528,7.272 C9.656,7.272 14.024,11.064 19.112,11.064 L19.688,11.064 L19.688,11.88 L15.608,11.88 C10.376,11.88 7.544,8.712 3.128,8.712 C2.456,8.712 1.784,8.808 1.016,8.952 L0.44,9.048 L0.248,8.232 L4.232,7.416 Z M16.568,3.912 C22.856,3.912 32.984,11.064 38.84,11.064 L39.32,11.064 L39.32,11.88 L35.384,11.88 C29.096,11.88 18.968,4.776 13.112,4.776 L12.632,4.776 L12.632,3.912 L16.568,3.912 Z M52.232,8.52 L47.96,8.52 C41.672,8.52 31.544,1.416 25.688,1.416 L25.208,1.416 L25.208,0.552 L29.144,0.552 C35.432,0.552 45.608,7.272 51.464,7.272 L52.232,7.272 L52.232,8.52 Z" id="7" fill="#000000"></path>
    </g>
</svg>