<?xml version="1.0" encoding="UTF-8" standalone="no"?>
<svg width="53px" height="12px" viewBox="0 0 53 12" version="1.1" xmlns="http://www.w3.org/2000/svg" xmlns:xlink="http://www.w3.org/1999/xlink">
    <g stroke="none" stroke-width="1" fill="none" fill-rule="evenodd">
        <path d="M4.232,5.024 L0.248,4.16 L0.44,3.344 L1.016,3.488 C1.784,3.632 2.456,3.68 3.128,3.68 C7.544,3.68 10.376,0.512 15.608,0.512 L19.688,0.512 L19.688,1.376 L19.112,1.376 C14.024,1.376 9.656,5.12 5.528,5.12 C5.096,5.12 4.664,5.12 4.232,5.024 Z M16.568,8.48 L12.632,8.48 L12.632,7.664 L13.112,7.664 C18.968,7.664 29.096,0.512 35.384,0.512 L39.32,0.512 L39.32,1.376 L38.84,1.376 C32.984,1.376 22.856,8.48 16.568,8.48 Z M29.144,11.84 L25.208,11.84 L25.208,11.024 L25.688,11.024 C31.544,11.024 41.672,3.872 47.96,3.872 L52.28,3.872 L52.28,5.12 L51.464,5.12 C45.608,5.12 35.432,11.84 29.144,11.84 Z" id="8" fill="#000000"></path>
    </g>
</svg>